<svg xmlns="http://www.w3.org/2000/svg" viewBox="0 0 32 32">
  <g fill="#f5f7fa" transform="translate(4.5, 9)">
    <!-- { -->
    <path d="M5.5 0.5C5.5 0.5 4.2 0.5 3.5 1.2C2.8 1.9 2.8 2.8 2.8 3.5L2.8 5.5C2.8 6.2 2.8 6.6 2.4 7C2.0 7.4 1.2 7.5 0.5 7.5C1.2 7.5 2.0 7.6 2.4 8C2.8 8.4 2.8 8.8 2.8 9.5L2.8 11.5C2.8 12.2 2.8 13.1 3.5 13.8C4.2 14.5 5.5 14.5 5.5 14.5" stroke="#f5f7fa" stroke-width="1.3" fill="none" stroke-linecap="round" stroke-linejoin="round"/>
    <!-- n -->
    <path d="M9.5 10.5L9.5 6.5C9.5 6.5 9.5 4.5 11.5 4.5C13.5 4.5 13.5 6.5 13.5 6.5L13.5 10.5M9.5 10.5L9.5 4.8" stroke="#f5f7fa" stroke-width="1.4" fill="none" stroke-linecap="round" stroke-linejoin="round"/>
    <!-- } -->
    <path d="M17.5 0.5C17.5 0.5 18.8 0.5 19.5 1.2C20.2 1.9 20.2 2.8 20.2 3.5L20.2 5.5C20.2 6.2 20.2 6.6 20.6 7C21.0 7.4 21.8 7.5 22.5 7.5C21.8 7.5 21.0 7.6 20.6 8C20.2 8.4 20.2 8.8 20.2 9.5L20.2 11.5C20.2 12.2 20.2 13.1 19.5 13.8C18.8 14.5 17.5 14.5 17.5 14.5" stroke="#f5f7fa" stroke-width="1.3" fill="none" stroke-linecap="round" stroke-linejoin="round"/>
  </g>
</svg>
