<svg width="512" height="512" viewBox="0 0 512 512" fill="none" xmlns="http://www.w3.org/2000/svg">
<path d="M459.022 411.943C493.909 366.521 512.559 310.714 511.986 253.444C511.412 196.173 491.653 140.749 455.863 96.0348L256 256.003L459.022 411.943Z" fill="url(#paint0_linear_956_14)"/>
<path d="M123.212 37.131C77.4998 64.8649 41.6181 106.216 20.6032 155.381C-0.4116 204.546 -5.50516 259.057 6.03751 311.264C17.5801 363.47 45.1798 410.752 84.9626 446.476C124.746 482.199 174.716 504.569 227.859 510.447C281.003 516.324 334.653 505.413 381.28 479.247C427.907 453.082 465.173 412.971 487.847 364.55C510.517 316.126 517.46 261.819 507.695 209.251C497.93 156.682 471.953 108.489 433.404 71.4367L348.415 159.856C368.493 179.158 382.027 204.262 387.113 231.646C392.198 259.031 388.585 287.32 376.774 312.545C364.964 337.77 345.552 358.665 321.262 372.295C296.972 385.926 269.025 391.607 241.341 388.544C213.657 385.485 187.626 373.83 166.903 355.221C146.179 336.614 131.801 311.983 125.789 284.787C119.776 257.591 122.429 229.195 133.376 203.584C144.323 177.973 163.015 156.433 186.828 141.985L123.212 37.131Z" fill="white"/>
<path d="M458.685 99.6224C426.025 57.2896 380.928 26.2452 329.726 10.8466C278.524 -4.5522 223.785 -3.53247 173.192 13.7627C122.598 31.0578 78.69 63.7599 47.6286 107.28C16.5672 150.8 -0.0879053 202.954 0.000348934 256.421C0.0886032 309.889 16.916 361.987 48.1209 405.404C79.3254 448.82 123.342 481.378 173.992 498.507C224.642 515.636 279.384 516.476 330.535 500.908C381.687 485.339 426.679 454.147 459.199 411.706L361.85 337.11C344.909 359.22 321.472 375.469 294.827 383.577C268.181 391.688 239.664 391.248 213.28 382.326C186.895 373.405 163.966 356.446 147.71 333.828C131.455 311.211 122.689 284.072 122.643 256.219C122.597 228.366 131.273 201.198 147.454 178.528C163.634 155.857 186.507 138.822 212.863 129.812C239.218 120.803 267.733 120.272 294.405 128.293C321.078 136.315 344.569 152.487 361.583 174.539L458.685 99.6224Z" fill="url(#paint1_radial_956_14)"/>
<defs>
<linearGradient id="paint0_linear_956_14" x1="513.01" y1="256.521" x2="-1.00938" y2="255.485" gradientUnits="userSpaceOnUse">
<stop offset="0.204805" stop-color="#217684"/>
<stop offset="0.549593" stop-color="#56D3DB"/>
</linearGradient>
<radialGradient id="paint1_radial_956_14" cx="0" cy="0" r="1" gradientUnits="userSpaceOnUse" gradientTransform="translate(699.983 195.029) rotate(113.427) scale(724.04 724.04)">
<stop stop-color="#38C3EE"/>
<stop offset="0.450649" stop-color="#69F1F6"/>
<stop offset="0.932699" stop-color="#207D8B"/>
</radialGradient>
</defs>
</svg>
