<svg xmlns="http://www.w3.org/2000/svg" width="110" height="110" viewBox="0 0 110 110">
  <defs>
    <linearGradient id="contrail" x1="0" y1="1" x2="1" y2="0">
      <stop offset="0%" stop-color="rgba(255,255,255,0.9)" stop-opacity="0"/>
      <stop offset="55%" stop-color="rgba(255,255,255,0.9)" stop-opacity="0.55"/>
      <stop offset="100%" stop-color="rgba(255,255,255,0.9)" stop-opacity="1"/>
    </linearGradient>
  </defs>
  <rect x="0" y="0" width="110" height="110" rx="22" ry="22" fill="rgb(10,180,255)"/>
  <svg x="13" y="13" width="84" height="84" viewBox="0 0 64 64">
    <path d="M2 62 L 32 32" stroke="url(#contrail)" stroke-width="5" fill="none" stroke-linecap="round"/>
    <svg x="22" y="-2" width="44" height="44" viewBox="0 0 1200 1200">
      <g transform="rotate(-45 600 600) translate(0,1200) scale(0.1,-0.1)" fill="#fff">
        <path d="M3385 10486 c-74 -32 -119 -127 -96 -199 6 -18 360 -794 786 -1723 l774 -1689 -37 -7 c-20 -4 -221 -21 -447 -38 -356 -27 -799 -63 -1568 -126 -109 -9 -199 -15 -201 -13 -1 2 -188 324 -415 714 -352 605 -421 718 -467 762 -72 70 -118 83 -289 83 -120 0 -135 -2 -182 -25 -62 -31 -99 -82 -113 -154 -13 -69 -13 -4062 0 -4140 12 -72 50 -124 113 -156 47 -23 62 -25 182 -25 163 0 215 14 283 75 42 38 112 152 467 762 230 395 420 720 421 722 2 2 92 -4 201 -13 769 -63 1212 -99 1568 -126 226 -17 427 -34 447 -38 l37 -7 -770 -1680 c-424 -924 -777 -1698 -786 -1720 -29 -81 13 -178 94 -211 39 -17 551 -19 623 -4 87 19 181 70 236 128 30 31 603 662 829 912 249 275 980 1084 1290 1425 159 177 371 411 470 520 412 457 425 470 539 520 29 13 79 28 112 34 37 7 359 12 879 15 806 4 914 8 1180 42 716 91 1184 350 1301 719 34 106 34 244 0 350 -118 371 -581 627 -1301 719 -265 34 -387 39 -1220 45 -923 7 -873 4 -985 61 -91 47 -98 55 -791 821 -96 106 -310 343 -475 525 -483 534 -838 927 -999 1104 -886 981 -861 955 -948 997 -34 17 -86 36 -115 42 -78 16 -588 14 -627 -3z"/>
      </g>
    </svg>
  </svg>
</svg>
