<svg width="1024" height="1024" viewBox="0 0 1024 1024" fill="none" xmlns="http://www.w3.org/2000/svg">
<rect width="1024" height="1024" rx="180" fill="url(#paint0_linear_7_2)"/>
<path d="M500.022 175.554C491.84 179.712 489.829 182.394 479.501 204.524C464.748 236.31 464.48 237.785 463.675 299.212L463.005 351.116L414.454 385.584C343.773 436.013 277.384 482.955 256.729 497.306C233.795 513.266 231.783 515.144 229.101 523.325C227.223 528.958 226.955 533.116 227.76 546.796C228.833 567.852 231.783 573.888 240.635 573.888C242.111 573.888 263.435 567.316 287.979 559.269C355.978 536.871 460.054 504.146 463.139 504.146C463.81 504.146 464.614 515.144 465.151 528.556C465.955 549.746 467.431 571.34 470.65 614.124L471.454 624.182L465.687 628.608C445.167 644.703 394.604 688.962 394.068 691.376C393.665 692.986 393.531 701.435 393.799 710.019C394.202 725.308 394.336 725.711 397.957 728.93C399.969 730.673 403.456 732.148 405.468 732.148C407.614 732.148 423.037 727.723 439.936 722.224C485.134 707.605 490.633 706.129 491.17 708.007C492.377 711.494 500.29 719.273 504.448 720.882C515.714 725.711 527.65 721.017 535.027 708.812C536.234 706.8 538.514 707.202 557.827 713.238C569.63 716.993 587.467 722.76 597.392 726.113C607.317 729.466 616.974 732.148 619.12 732.148C628.374 732.148 633.068 720.48 631.995 700.094C631.458 688.426 636.555 694.059 586.663 651.677L553.669 623.78L554.742 612.514C556.352 594.542 559.705 543.979 560.644 523.191C561.314 510.181 561.985 504.146 563.058 504.146C566.008 504.146 727.354 555.782 770.272 570.535C792.133 577.911 796.291 573.485 796.157 542.504C796.157 518.899 795.084 516.351 782.343 506.694C776.844 502.536 744.655 479.736 710.723 455.863C676.791 431.99 629.581 398.594 605.842 381.695C562.655 351.116 562.521 350.982 562.387 346.153C562.387 343.337 561.851 319.464 561.18 292.908C559.839 236.444 559.839 236.444 544.013 203.719C534.49 184.003 529.26 177.163 521.883 174.347C515.848 172.067 506.057 172.603 500.022 175.554Z" fill="#FEFFFE"/>
<path d="M502.168 800.817C493.048 805.512 488.353 812.352 487.683 822.008C486.476 837.7 495.998 848.832 511.422 849.905C533.686 851.514 547.5 826.971 534.356 808.865C526.98 798.537 513.3 795.184 502.168 800.817Z" fill="#FEFFFE"/>
<defs>
<linearGradient id="paint0_linear_7_2" x1="512" y1="0" x2="512" y2="1024" gradientUnits="userSpaceOnUse">
<stop stop-color="#222222"/>
<stop offset="1" stop-color="#171717"/>
</linearGradient>
</defs>
</svg>
