<svg width="327" height="329" viewBox="0 0 327 329" fill="none" xmlns="http://www.w3.org/2000/svg">
<path d="M243.224 0H83.5183C61.3678 0 40.1246 8.841 24.4619 24.5781C8.79918 40.3152 0 61.6593 0 83.9149V244.379C0 266.634 8.79918 287.979 24.4619 303.716C40.1246 319.453 61.3678 328.294 83.5183 328.294H243.224C265.374 328.294 286.617 319.453 302.28 303.716C317.943 287.979 326.742 266.634 326.742 244.379V83.9149C326.742 61.6593 317.943 40.3152 302.28 24.5781C286.617 8.841 265.374 0 243.224 0V0Z" fill="#34364A"/>
<path d="M210.785 277.938C192.54 296.183 141.765 274.978 97.3693 230.581C52.973 186.185 31.7677 135.411 50.0003 117.166C56.0177 111.149 65.5735 109.428 77.2713 111.413C81.3029 135.182 100.631 167.796 130.393 197.558C160.154 227.32 192.769 246.648 216.537 250.667C218.523 262.377 216.79 271.921 210.785 277.938Z" fill="url(#paint0_linear_1013_73)"/>
<path d="M216.536 250.667C192.767 246.648 160.141 227.308 130.391 197.558C100.641 167.808 81.301 135.182 77.2694 111.413C75.2957 99.7155 77.0167 90.1599 83.0341 84.1425C89.0515 78.1251 98.5949 76.4041 110.305 78.3899C114.324 102.159 133.664 134.773 163.414 164.523C193.164 194.273 212.504 226.899 216.536 250.667Z" fill="url(#paint1_linear_1013_73)"/>
<path d="M243.807 244.915C237.789 250.932 228.234 252.653 216.536 250.667C212.505 226.899 193.177 194.284 163.415 164.522C133.653 134.76 114.325 102.158 110.305 78.3896C134.062 82.4093 166.688 101.737 196.45 131.499C226.212 161.261 245.528 193.875 249.608 217.62C251.545 229.354 249.824 238.897 243.807 244.915Z" fill="url(#paint2_linear_1013_73)"/>
<path d="M276.829 211.891C270.812 217.909 261.256 219.63 249.558 217.644C245.527 193.876 226.199 161.261 196.449 131.499C166.699 101.737 134.061 82.4096 110.304 78.39C108.319 66.6802 110.04 57.1366 116.057 51.1192C134.29 32.8745 185.064 54.0798 229.473 98.476C273.881 142.872 295.062 193.647 276.829 211.891Z" fill="url(#paint3_linear_1013_73)"/>
<path d="M229.475 98.4758C225.226 94.9858 221.05 91.5077 216.622 88.2343C212.193 84.9608 207.884 81.6994 203.383 78.6667C194.482 72.5885 185.164 67.1434 175.499 62.3716C166.165 57.6109 156.242 54.1064 145.989 51.9495C141.263 50.9838 136.417 50.7524 131.62 51.2635C129.544 51.5237 127.518 52.0831 125.603 52.9243C123.94 53.6799 122.437 54.746 121.174 56.0654C116.36 60.9996 116.36 70.9644 118.767 80.2552C121.174 89.546 125.903 98.8008 131.379 107.646C137.064 116.614 143.219 125.275 149.817 133.593C156.4 142.078 163.284 150.442 170.276 158.734C184.405 175.703 198.341 193.069 209.894 212.77C212.804 217.767 215.443 222.918 217.801 228.198C220.268 233.681 222.175 239.398 223.493 245.264C223.83 246.756 224.095 248.321 224.324 249.861C224.552 251.401 224.697 252.93 224.817 254.494C225.064 257.703 224.995 260.927 224.612 264.122C224.206 267.587 223.302 270.976 221.929 274.183C220.428 277.573 218.277 280.635 215.598 283.197C212.915 285.7 209.756 287.636 206.308 288.89C203.12 290.033 199.784 290.71 196.403 290.9C190.252 291.172 184.098 290.44 178.182 288.733C166.785 285.604 156.604 280.405 147.037 274.508C137.588 268.576 128.67 261.839 120.38 254.374C116.248 250.675 112.236 246.856 108.345 242.917C104.542 238.933 100.811 234.878 97.3088 230.641C101.557 234.132 105.733 237.61 110.162 240.883C114.591 244.157 118.899 247.406 123.4 250.439C132.298 256.53 141.616 261.983 151.285 266.758C156.039 269.105 160.916 271.194 165.895 273.016C170.739 274.808 175.722 276.201 180.794 277.18C185.517 278.14 190.359 278.371 195.151 277.866C197.229 277.607 199.256 277.043 201.169 276.193C202.834 275.453 204.335 274.389 205.585 273.064C210.399 268.178 210.399 258.141 207.992 248.994C205.585 239.848 200.675 230.485 195.176 221.615C189.515 212.624 183.393 203.931 176.835 195.572C170.3 187.052 163.44 178.724 156.436 170.408C142.343 153.451 128.286 136.229 116.721 116.48C113.782 111.438 111.138 106.231 108.802 100.883C106.377 95.3853 104.518 89.6553 103.254 83.7814C102.618 80.7527 102.184 77.6851 101.954 74.5989C101.706 71.3904 101.778 68.1652 102.171 64.9711C102.586 61.5296 103.494 58.1655 104.867 54.9822C106.369 51.5972 108.52 48.5391 111.197 45.9803C113.876 43.4782 117.032 41.5421 120.476 40.2878C123.691 39.1442 127.056 38.4753 130.465 38.3021C136.612 38.029 142.762 38.7607 148.673 40.4683C160.07 43.5974 170.252 48.7964 179.819 54.6814C189.265 60.6167 198.184 67.3529 206.476 74.8155C210.6 78.5062 214.612 82.3212 218.511 86.2606C222.242 90.1959 225.96 94.2396 229.475 98.4758Z" fill="#D8F1F3"/>
<defs>
<linearGradient id="paint0_linear_1013_73" x1="41.7445" y1="125.434" x2="202.553" y2="286.17" gradientUnits="userSpaceOnUse">
<stop stop-color="#2ACBD2"/>
<stop offset="1" stop-color="#262D41"/>
</linearGradient>
<linearGradient id="paint1_linear_1013_73" x1="26.8216" y1="55.2061" x2="313.042" y2="309.515" gradientUnits="userSpaceOnUse">
<stop offset="0.02" stop-color="#60EFF1"/>
<stop offset="0.18" stop-color="#58D5D9"/>
<stop offset="0.51" stop-color="#45939D"/>
<stop offset="0.86" stop-color="#2B4758"/>
</linearGradient>
<linearGradient id="paint2_linear_1013_73" x1="29.2475" y1="-1.30813" x2="315.374" y2="309.004" gradientUnits="userSpaceOnUse">
<stop stop-color="#00ABB3"/>
<stop offset="1" stop-color="#D2F2F4"/>
</linearGradient>
<linearGradient id="paint3_linear_1013_73" x1="22.7449" y1="-51.4819" x2="318.641" y2="234.526" gradientUnits="userSpaceOnUse">
<stop offset="0.3" stop-color="#00B4BB"/>
<stop offset="0.46" stop-color="#00B9BF"/>
<stop offset="0.65" stop-color="#1CC6CC"/>
<stop offset="0.86" stop-color="#46DCE0"/>
<stop offset="1" stop-color="#60EFF1"/>
</linearGradient>
</defs>
</svg>
